<svg width="1600" height="900" viewBox="0 0 1600 900" fill="none" xmlns="http://www.w3.org/2000/svg">
  <defs>
    <linearGradient id="bg" x1="120" y1="80" x2="1480" y2="820" gradientUnits="userSpaceOnUse">
      <stop stop-color="#07111F"/>
      <stop offset="1" stop-color="#13253F"/>
    </linearGradient>
    <linearGradient id="panelLeft" x1="120" y1="160" x2="760" y2="740" gradientUnits="userSpaceOnUse">
      <stop stop-color="#25171B"/>
      <stop offset="1" stop-color="#42242A"/>
    </linearGradient>
    <linearGradient id="panelRight" x1="840" y1="160" x2="1480" y2="740" gradientUnits="userSpaceOnUse">
      <stop stop-color="#10261D"/>
      <stop offset="1" stop-color="#183D2D"/>
    </linearGradient>
    <linearGradient id="windshield" x1="0" y1="0" x2="1" y2="1">
      <stop stop-color="#BBD4F7" stop-opacity="0.95"/>
      <stop offset="1" stop-color="#6E91C4" stop-opacity="0.85"/>
    </linearGradient>
  </defs>

  <rect width="1600" height="900" rx="44" fill="url(#bg)"/>
  <rect x="64" y="64" width="1472" height="772" rx="36" fill="#08101A" fill-opacity="0.64" stroke="#7AA2D8" stroke-opacity="0.24" stroke-width="2"/>

  <rect x="120" y="150" width="620" height="600" rx="32" fill="url(#panelLeft)" stroke="#FF8B8B" stroke-opacity="0.35" stroke-width="2"/>
  <rect x="860" y="150" width="620" height="600" rx="32" fill="url(#panelRight)" stroke="#7EF0B2" stroke-opacity="0.35" stroke-width="2"/>

  <text x="160" y="232" fill="#FF8F8F" font-size="44" font-family="Arial, sans-serif" font-weight="700">Rejected</text>
  <text x="900" y="232" fill="#89F1B6" font-size="44" font-family="Arial, sans-serif" font-weight="700">Approved</text>

  <g transform="translate(150 250)">
    <ellipse cx="300" cy="360" rx="210" ry="34" fill="#05080D" fill-opacity="0.45"/>
    <path d="M132 278C146 228 182 176 236 150C273 132 329 132 365 150C420 177 455 228 468 278L500 292C530 305 550 336 550 370V412C550 436 530 456 506 456H482C464 456 448 444 444 426L436 390H164L156 426C152 444 136 456 118 456H94C70 456 50 436 50 412V370C50 336 70 305 100 292L132 278Z" fill="#7B828C"/>
    <path d="M176 270C190 223 226 188 275 169C306 158 352 158 383 169C432 188 468 223 482 270H176Z" fill="url(#windshield)"/>
    <rect x="102" y="304" width="58" height="44" rx="20" fill="#F5D66B"/>
    <rect x="440" y="304" width="58" height="44" rx="20" fill="#F5D66B"/>
    <rect x="240" y="286" width="120" height="18" rx="9" fill="#A2AAB4"/>
    <rect x="232" y="330" width="136" height="12" rx="6" fill="#DEE4EC"/>
    <circle cx="166" cy="406" r="46" fill="#1E2128"/>
    <circle cx="434" cy="406" r="46" fill="#1E2128"/>
    <circle cx="166" cy="406" r="22" fill="#949AA4"/>
    <circle cx="434" cy="406" r="22" fill="#949AA4"/>
    <path d="M132 246C146 230 165 219 188 215" stroke="#5D646E" stroke-width="10" stroke-linecap="round"/>
    <path d="M454 214C477 219 497 231 512 248" stroke="#5D646E" stroke-width="10" stroke-linecap="round"/>
    <path d="M214 214C222 204 234 197 248 194C256 192 264 201 262 210C259 221 250 230 240 238" fill="#5A3E27"/>
    <path d="M310 180C344 174 385 180 414 198C427 206 430 224 421 236C411 250 391 253 378 244C349 223 311 216 280 224C266 228 252 219 248 206C245 193 255 182 269 180C282 178 296 178 310 180Z" fill="#5A3E27"/>
    <path d="M380 258C398 251 417 252 433 260C445 266 450 281 445 294C438 308 422 314 409 309C397 305 384 304 372 307C357 311 341 303 336 289C331 275 340 260 354 256C362 254 371 254 380 258Z" fill="#5A3E27"/>
    <path d="M160 318C177 309 197 307 215 313C228 317 236 331 233 344C229 359 214 369 199 367C188 366 178 367 168 370C153 375 137 368 130 355C124 341 132 325 145 320L160 318Z" fill="#5A3E27"/>
  </g>

  <g transform="translate(890 250)">
    <ellipse cx="300" cy="360" rx="210" ry="34" fill="#05080D" fill-opacity="0.45"/>
    <path d="M132 278C146 228 182 176 236 150C273 132 329 132 365 150C420 177 455 228 468 278L500 292C530 305 550 336 550 370V412C550 436 530 456 506 456H482C464 456 448 444 444 426L436 390H164L156 426C152 444 136 456 118 456H94C70 456 50 436 50 412V370C50 336 70 305 100 292L132 278Z" fill="#F5F8FC"/>
    <path d="M176 270C190 223 226 188 275 169C306 158 352 158 383 169C432 188 468 223 482 270H176Z" fill="url(#windshield)"/>
    <rect x="102" y="304" width="58" height="44" rx="20" fill="#FFE288"/>
    <rect x="440" y="304" width="58" height="44" rx="20" fill="#FFE288"/>
    <rect x="240" y="286" width="120" height="18" rx="9" fill="#ADB8C7"/>
    <rect x="232" y="330" width="136" height="12" rx="6" fill="#D6DEE8"/>
    <circle cx="166" cy="406" r="46" fill="#20262E"/>
    <circle cx="434" cy="406" r="46" fill="#20262E"/>
    <circle cx="166" cy="406" r="22" fill="#AAB2BD"/>
    <circle cx="434" cy="406" r="22" fill="#AAB2BD"/>
    <path d="M132 246C146 230 165 219 188 215" stroke="#D3DAE3" stroke-width="10" stroke-linecap="round"/>
    <path d="M454 214C477 219 497 231 512 248" stroke="#D3DAE3" stroke-width="10" stroke-linecap="round"/>
    <circle cx="494" cy="122" r="42" fill="#112E23" stroke="#7EF0B2" stroke-width="4"/>
    <path d="M476 122L489 136L516 108" stroke="#7EF0B2" stroke-width="10" stroke-linecap="round" stroke-linejoin="round"/>
  </g>

  <text x="800" y="818" text-anchor="middle" fill="#B7CAE6" fill-opacity="0.78" font-size="24" font-family="Arial, sans-serif">AI Image Quality Inspection Workflow</text>
</svg>
