<svg width="1600" height="900" viewBox="0 0 1600 900" fill="none" xmlns="http://www.w3.org/2000/svg">
  <defs>
    <linearGradient id="bg" x1="160" y1="80" x2="1440" y2="820" gradientUnits="userSpaceOnUse">
      <stop stop-color="#071423"/>
      <stop offset="1" stop-color="#0E2744"/>
    </linearGradient>
    <linearGradient id="screen" x1="184" y1="168" x2="1416" y2="732" gradientUnits="userSpaceOnUse">
      <stop stop-color="#0E1D32"/>
      <stop offset="1" stop-color="#172F4F"/>
    </linearGradient>
    <linearGradient id="topCard" x1="0" y1="0" x2="1" y2="1">
      <stop stop-color="#152B47"/>
      <stop offset="1" stop-color="#1D3B63"/>
    </linearGradient>
  </defs>

  <rect width="1600" height="900" rx="44" fill="url(#bg)"/>
  <rect x="64" y="64" width="1472" height="772" rx="36" fill="#09111C" fill-opacity="0.7" stroke="#82B8FF" stroke-opacity="0.22" stroke-width="2"/>
  <rect x="184" y="154" width="1232" height="592" rx="28" fill="url(#screen)" stroke="#89C2FF" stroke-opacity="0.16" stroke-width="2"/>

  <rect x="230" y="200" width="1140" height="58" rx="18" fill="#0A1627"/>
  <circle cx="270" cy="229" r="9" fill="#FF6C6C"/>
  <circle cx="302" cy="229" r="9" fill="#FFD166"/>
  <circle cx="334" cy="229" r="9" fill="#4ADE80"/>
  <rect x="392" y="214" width="160" height="28" rx="14" fill="#16304F"/>
  <rect x="1120" y="214" width="108" height="28" rx="14" fill="#15324E"/>
  <rect x="1246" y="214" width="92" height="28" rx="14" fill="#1E4670"/>

  <rect x="230" y="286" width="230" height="132" rx="22" fill="url(#topCard)"/>
  <rect x="484" y="286" width="230" height="132" rx="22" fill="url(#topCard)"/>
  <rect x="738" y="286" width="230" height="132" rx="22" fill="url(#topCard)"/>
  <rect x="992" y="286" width="378" height="132" rx="22" fill="url(#topCard)"/>

  <text x="266" y="326" fill="#9DB9DB" font-size="22" font-family="Arial, sans-serif">Today's Orders</text>
  <text x="266" y="382" fill="#F3F8FF" font-size="40" font-family="Arial, sans-serif" font-weight="700">12,846</text>
  <text x="520" y="326" fill="#9DB9DB" font-size="22" font-family="Arial, sans-serif">Revenue</text>
  <text x="520" y="382" fill="#F3F8FF" font-size="40" font-family="Arial, sans-serif" font-weight="700">$386K</text>
  <text x="774" y="326" fill="#9DB9DB" font-size="22" font-family="Arial, sans-serif">Active Users</text>
  <text x="774" y="382" fill="#F3F8FF" font-size="40" font-family="Arial, sans-serif" font-weight="700">89,420</text>
  <text x="1028" y="326" fill="#9DB9DB" font-size="22" font-family="Arial, sans-serif">Performance Summary</text>
  <path d="M1040 378C1075 360 1102 366 1130 344C1157 323 1189 324 1215 344C1241 365 1271 366 1300 341C1317 326 1337 314 1358 308" stroke="#67D3FF" stroke-width="6" stroke-linecap="round"/>
  <circle cx="1130" cy="344" r="7" fill="#67D3FF"/>
  <circle cx="1215" cy="344" r="7" fill="#67D3FF"/>
  <circle cx="1300" cy="341" r="7" fill="#67D3FF"/>

  <rect x="230" y="446" width="360" height="250" rx="24" fill="#11253E"/>
  <text x="264" y="490" fill="#D9E8FA" font-size="28" font-family="Arial, sans-serif" font-weight="700">Traffic Sources</text>
  <circle cx="410" cy="575" r="88" fill="#183556"/>
  <path d="M410 487C453 487 491 503 521 530L410 575V487Z" fill="#57A7FF"/>
  <path d="M521 530C543 550 557 579 557 610C557 680 500 737 430 737C376 737 327 703 307 653L410 575L521 530Z" fill="#7A6CFF"/>
  <path d="M307 653C297 630 293 604 296 578C299 551 310 526 329 505L410 575L307 653Z" fill="#28D7A1"/>
  <circle cx="410" cy="575" r="44" fill="#11253E"/>
  <rect x="506" y="526" width="16" height="16" rx="5" fill="#57A7FF"/>
  <rect x="506" y="566" width="16" height="16" rx="5" fill="#7A6CFF"/>
  <rect x="506" y="606" width="16" height="16" rx="5" fill="#28D7A1"/>
  <text x="534" y="540" fill="#A9C4E2" font-size="20" font-family="Arial, sans-serif">Organic</text>
  <text x="534" y="580" fill="#A9C4E2" font-size="20" font-family="Arial, sans-serif">Paid</text>
  <text x="534" y="620" fill="#A9C4E2" font-size="20" font-family="Arial, sans-serif">Direct</text>

  <rect x="618" y="446" width="388" height="250" rx="24" fill="#11253E"/>
  <text x="652" y="490" fill="#D9E8FA" font-size="28" font-family="Arial, sans-serif" font-weight="700">Monthly Sales</text>
  <line x1="668" y1="648" x2="956" y2="648" stroke="#315378" stroke-width="2"/>
  <line x1="668" y1="596" x2="956" y2="596" stroke="#244261" stroke-width="2"/>
  <line x1="668" y1="544" x2="956" y2="544" stroke="#244261" stroke-width="2"/>
  <rect x="694" y="560" width="34" height="88" rx="10" fill="#5BC0FF"/>
  <rect x="748" y="516" width="34" height="132" rx="10" fill="#36A3FF"/>
  <rect x="802" y="472" width="34" height="176" rx="10" fill="#2F89F5"/>
  <rect x="856" y="538" width="34" height="110" rx="10" fill="#6B72FF"/>
  <rect x="910" y="498" width="34" height="150" rx="10" fill="#7D58F8"/>
  <text x="697" y="676" fill="#88A8CC" font-size="18" font-family="Arial, sans-serif">Jan</text>
  <text x="750" y="676" fill="#88A8CC" font-size="18" font-family="Arial, sans-serif">Feb</text>
  <text x="804" y="676" fill="#88A8CC" font-size="18" font-family="Arial, sans-serif">Mar</text>
  <text x="857" y="676" fill="#88A8CC" font-size="18" font-family="Arial, sans-serif">Apr</text>
  <text x="912" y="676" fill="#88A8CC" font-size="18" font-family="Arial, sans-serif">May</text>

  <rect x="1034" y="446" width="336" height="250" rx="24" fill="#11253E"/>
  <text x="1068" y="490" fill="#D9E8FA" font-size="28" font-family="Arial, sans-serif" font-weight="700">Conversion Trend</text>
  <line x1="1078" y1="648" x2="1326" y2="648" stroke="#315378" stroke-width="2"/>
  <line x1="1078" y1="606" x2="1326" y2="606" stroke="#244261" stroke-width="2"/>
  <line x1="1078" y1="564" x2="1326" y2="564" stroke="#244261" stroke-width="2"/>
  <path d="M1090 618C1116 602 1136 594 1160 586C1186 578 1204 586 1228 562C1252 538 1280 526 1314 502" stroke="#7CF5D1" stroke-width="6" stroke-linecap="round"/>
  <circle cx="1090" cy="618" r="7" fill="#7CF5D1"/>
  <circle cx="1160" cy="586" r="7" fill="#7CF5D1"/>
  <circle cx="1228" cy="562" r="7" fill="#7CF5D1"/>
  <circle cx="1314" cy="502" r="7" fill="#7CF5D1"/>
</svg>
